<?xml version="1.0" standalone="no"?><!DOCTYPE svg PUBLIC "-//W3C//DTD SVG 1.1//EN" "http://www.w3.org/Graphics/SVG/1.1/DTD/svg11.dtd"><svg t="1744432524493" class="icon" viewBox="0 0 1024 1024" version="1.1" xmlns="http://www.w3.org/2000/svg" p-id="1760" xmlns:xlink="http://www.w3.org/1999/xlink" width="800" height="800"><path d="M829 798.8H239.8c-61.2 0-111-47.1-111-105.1V268.2c0-57.9 49.8-105 111-105h70.1c9.5 0 18.6-3.5 24.9-9.4L410 82h245.1l91.6 72c7.4 5.9 17.1 9.1 27.2 9.1h55c61.2 0 111 47.1 111 105v425.6c0.1 58-49.7 105.1-110.9 105.1zM239.8 211c-36.7 0-66.6 25.7-66.6 57.2v425.6c0 31.6 29.9 57.3 66.6 57.3H829c36.7 0 66.6-25.7 66.6-57.3V268.2c0-31.5-29.9-57.2-66.6-57.2h-55c-19.5 0-38.5-6.5-53.4-18.3l-79.9-62.8H426.8l-62.6 59.6c-14.5 13.9-33.8 21.5-54.3 21.5h-70.1z" fill="#4CAF50" p-id="1761"></path><path d="M534.4 681.7c-106.2 0-192.5-86.3-192.5-192.5s86.4-192.5 192.5-192.5S726.9 383 726.9 489.2s-86.3 192.5-192.5 192.5z m0-340.7c-81.7 0-148.1 66.4-148.1 148.1 0 81.7 66.4 148.1 148.1 148.1s148.1-66.4 148.1-148.1c0-81.7-66.4-148.1-148.1-148.1z" fill="#4CAF50" p-id="1762"></path><path d="M781.4 307.8m-32.5 0a32.5 32.5 0 1 0 65 0 32.5 32.5 0 1 0-65 0Z" fill="#4CAF50" p-id="1763"></path></svg>